<svg version="1.1" xmlns="http://www.w3.org/2000/svg" xmlns:xlink="http://www.w3.org/1999/xlink" id="main" height="1000" width="1000">

	<style> 
		<!-- Put style stuff here instead --> 
	</style>

	<!-- ground -->
	<line x1="0" y1="600" x2="1000" y2="600" style="stroke:green;stroke-width:6;stroke-opacity:.8"/>

	<!-- flower --> 

	<!-- stem --> 
	<line x1="120" y1="145" x2="120" y2="600" style="stroke:green;stroke-width:8;opacity:.8" /> 

	<!-- petals --> 
	<!-- upper left --> 
	<circle cx="100" cy="100" r="50" style="fill:purple;opacity:.7">
		<animate attributeName="cy" from="100" to="100" begin="5s" dur="10s" fill="remove" repeatCount="indefinite" />
		<animate attributeName="cx" from="100" to="150" begin="5s" dur="10s" fill="remove" repeatCount="indefinite" />
	</circle>
	<!-- upper right -->	 
	<circle cx="150" cy="100" r="50" style="fill:purple;opacity:.7">
		<animate attributeName="cx" from="150" to="155" begin="5s" dur="10s" fill="remove" repeatCount="indefinite" />
		<animate attributeName="cy" from="100" to="180" begin="5s" dur="10s" fill="remove" repeatCount="indefinite" />
	</circle> 
	<!-- lower left -->
	<circle cx="80" cy="160" r="50" style="fill:purple;opacity:.7">
		<animate attributeName="cx" from="80" to="100" begin="5s" dur="10s" fill="remove" repeatCount="indefinite" />
		<animate attributeName="cy" from="160" to="100" begin="5s" dur="10s" fill="remove" repeatCount="indefinite" />
	</circle> 
	<!-- lower right -->
	<circle cx="155" cy="180" r="50" style="fill:purple;opacity:.7">
		<animate attributeName="cx" from="155" to="80" begin="5s" dur="10s" fill="remove" repeatCount="indefinite" />
		<animate attributeName="cy" from="180" to="160" begin="5s" dur="10s" fill="remove" repeatCount="indefinite" />
	</circle> 

	<!-- bud -->
	<circle cx="120" cy="145" r="20" style="fill:yellow;opacity:.8"> </circle>

	<!-- leaves --> 
	<path d="M120,290 C145,330 195,270 220,300" style="stroke:green;stroke-width:4;fill:green;fill-opacity:.6;
														stroke-opacity:.8;"/> 
	<path d="M220,300 A20,10 0 0,0 120,290" style="stroke:green;stroke-width:4;fill:green;fill-opacity:.6;
														stroke-opacity:.8"/>

	<path d="M120,290 C95,330 45,390 45,350" style="stroke:green;stroke-width:4;fill:green;fill-opacity:.6;
														stroke-opacity:.8;"/> 
	<path d="M45,350 A20,10 0 1,1 120,290" style="stroke:green;stroke-width:4;fill:green;fill-opacity:.6;
														stroke-opacity:.8;"/> 
	<!--<path d="M220,300 A20,10 0 0,0 120,290" style="stroke:green;stroke-width:4;fill:green;fill-opacity:.6;
														stroke-opacity:.8"/>-->


	<!-- morg bubble -->
	<g id="morgbubble" visibility="hidden">
		<ellipse cx="340" cy="170" rx="200" ry="80" style="stroke:black;stroke-width:4;stroke-opacity:.8;fill:white;"/>
		<circle cx="280" cy="250" r="20" style="fill:white"/>
		<line x1="259" y1="243" x2="290" y2="300" style="stroke:black;stroke-width:4;stroke-opacity:.8;stroke-linecap:round"/>
		<line x1="299" y1="248" x2="290" y2="300" style="stroke:black;stroke-width:4;stroke-opacity:.8;stroke-linecap:round"/>
		<!-- text -->
		<text id="morgtext" x="210" y="170" style="fill:black;font-size:3;font-family:Courier;font-weight:bold">  </text> 
	</g>

	<!-- warren bubble -->
	<g id="warrbubble" visibility="hidden">
		<ellipse cx="650" cy="190" rx="120" ry="80" style="stroke:black;stroke-width:4;stroke-opacity:.8;fill:white;"/>
		<circle cx="680" cy="270" r="20" style="fill:white"/>
		<line x1="660" y1="270" x2="660" y2="315" style="stroke:black;stroke-width:4;stroke-opacity:.8;stroke-linecap:round"/>
		<line x1="699" y1="264" x2="660" y2="315" style="stroke:black;stroke-width:4;stroke-opacity:.8;stroke-linecap:round"/>
		<!-- text -->
		<text id="warrtext" x="590" y="190" style="fill:black;font-size:3;font-family:Courier;font-weight:bold">  </text>
	</g>

	<!-- gaussian blur --> 
	<defs>
    	<filter id="blur" x="0" y="0">
      		<feGaussianBlur in="SourceGraphic" stdDeviation="5" />
    	</filter>
  	</defs>

	<!-- morg body-->
	<path d="M400,400 Q180,180 400,600" style="stroke-linecap:round;stroke:red;fill:pink;stroke-width:4;stroke-opacity:.7"/>
	<path d="M400,400 Q520,180 400,600" style="stroke-linecap:round;stroke:red;fill:pink;stroke-width:4;stroke-opacity:.7"/>
	<!-- morg eyes --> 
	<ellipse cx="420" cy="420" rx="10" ry="20" style="fill:white;stroke:grey;stroke-width:3.5"/>
	<ellipse cx="380" cy="420" rx="10" ry="25" style="fill:white;stroke:grey;stroke-width:3.5"/>
	<circle cx="420" cy="420" r="5" style="fill:black"/>
	<circle cx="380" cy="420" r="5" style="fill:black"/>
	<!-- morg smile --> 
	<path id="morgsmile" d="M380,470 A10,10 0 0,0 420,470" visibility="hidden" style="stroke-linecap:round;stroke:black;stroke-width:4;stroke-opacity:.8;fill:none"/>
	<line id="morggrin" x1="380" y1="470" x2="420" y2="470" visibility="hidden" style="stroke-linecap:round;stroke:black;stroke-width:4;stroke-opacity:.7;"/>

	<!-- warren body -->
	<path d="M565,400 Q360,180 575,600" style="stroke-linecap:round;stroke:blue;fill:purple;fill-opacity:.6;stroke-width:4;stroke-opacity:.7"/>
	<path d="M565,400 Q800,200 575,600" style="stroke-linecap:round;stroke:blue;fill:purple;fill-opacity:.6;stroke-width:4;stroke-opacity:.7"/>
	<!-- warren eyes --> 
	<ellipse cx="530" cy="420" rx="10" ry="20" style="fill:white;stroke:grey;stroke-width:3.5"/>
	<ellipse cx="580" cy="420" rx="10" ry="25" style="fill:white;stroke:grey;stroke-width:3.5"/>
	<circle cx="530" cy="420" r="5" style="fill:black"/>
	<circle cx="580" cy="420" r="5" style="fill:black"/>
	<!-- warren smile -->
	<path id="warrsmile" d="M530,470 A10,10 0 0,0 580,470" visibility="hidden" style="stroke-linecap:round;stroke:black;stroke-width:4;stroke-opacity:.8;fill:none"/>
	<line id="warrgrin" x1="530" y1="470" x2="580" y2="470" visibility="hidden" style="stroke-linecap:round;stroke:black;stroke-width:4;stroke-opacity:.7;"/>

</svg>